<svg id="Instagram" xmlns="http://www.w3.org/2000/svg" viewBox="0 0 438.23 438.23"><defs><style>.cls-1{fill:#fff;}</style></defs><path class="cls-1" d="M366,109.13a25.7,25.7,0,1,0,25.69,25.69A25.69,25.69,0,0,0,366,109.13Z" transform="translate(-30.89 -30.89)"/><path class="cls-1" d="M251.8,142.08A107.92,107.92,0,1,0,359.72,250,108,108,0,0,0,251.8,142.08Zm0,177A69.13,69.13,0,1,1,320.93,250,69.21,69.21,0,0,1,251.8,319.13Z" transform="translate(-30.89 -30.89)"/><path class="cls-1" d="M337.48,469.11h-175A131.77,131.77,0,0,1,30.89,337.48v-175A131.77,131.77,0,0,1,162.52,30.89h175c72.58,0,131.63,59,131.63,131.63v175C469.11,410.07,410.06,469.11,337.48,469.11Zm-175-397a90.5,90.5,0,0,0-90.41,90.4v175a90.5,90.5,0,0,0,90.41,90.41h175a90.5,90.5,0,0,0,90.4-90.41v-175a90.5,90.5,0,0,0-90.4-90.4Z" transform="translate(-30.89 -30.89)"/></svg>