<svg id="Mail_2" data-name="Mail 2" xmlns="http://www.w3.org/2000/svg" viewBox="0 0 473.63 372.07"><defs><style>.cls-1{fill:#fff;}</style></defs><path class="cls-1" d="M418.44,64H81.56a68.45,68.45,0,0,0-68.37,68.37V367.66A68.45,68.45,0,0,0,81.56,436H418.44a68.45,68.45,0,0,0,68.37-68.37V132.34A68.45,68.45,0,0,0,418.44,64Zm0,32.68a35.66,35.66,0,0,1,8.12,1L284.44,258.88a45.9,45.9,0,0,1-68.87,0L73.45,97.62a35.58,35.58,0,0,1,8.11-1Zm35.69,271a35.73,35.73,0,0,1-35.69,35.69H81.56a35.73,35.73,0,0,1-35.69-35.69V132.34a35.4,35.4,0,0,1,2.68-13.52L191.05,280.5a78.59,78.59,0,0,0,117.91,0L451.45,118.82a35.4,35.4,0,0,1,2.68,13.52Z" transform="translate(-13.19 -63.97)"/></svg>