<svg id="WhatsApp" xmlns="http://www.w3.org/2000/svg" viewBox="0 0 461.62 462.75"><defs><style>.cls-1,.cls-2{fill:#fff;}.cls-2{fill-rule:evenodd;}</style></defs><path class="cls-1" d="M19.19,481.38,52.37,357.59A227.72,227.72,0,0,1,23.7,247.18c0-126,102.53-228.56,228.55-228.56S480.81,121.16,480.81,247.18,378.28,475.74,252.25,475.74A228,228,0,0,1,143.61,448ZM149.8,401.66l7.83,4.67a185,185,0,0,0,94.62,26.2c102.2,0,185.36-83.14,185.36-185.35S354.45,61.83,252.25,61.83,66.9,145,66.9,247.18A184.83,184.83,0,0,0,94,343.28l4.8,7.89L80.3,420.28Z" transform="translate(-19.19 -18.62)"/><path class="cls-2" d="M337.28,279c-9.41-5.63-21.65-11.91-32.74-7.38-8.5,3.48-13.93,16.79-19.43,23.58-2.83,3.49-6.21,4-10.55,2.29-31.91-12.71-56.37-34-74-63.38-3-4.56-2.45-8.15,1.14-12.39,5.33-6.26,12-13.37,13.45-21.82s-2.52-18.31-6-25.82c-4.46-9.61-9.45-23.31-19.07-28.74-8.85-5-20.5-2.2-28.37,4.22-13.61,11.07-20.17,28.43-20,45.63a64.56,64.56,0,0,0,1.79,14.48c2.75,11.35,8,21.94,13.9,32a253,253,0,0,0,14.5,22,223.81,223.81,0,0,0,62.9,58.4,190.15,190.15,0,0,0,39.23,18.66c15.36,5.07,29.06,10.36,45.65,7.21,17.38-3.3,34.51-14.06,41.41-30.8,2-5,3.06-10.48,1.92-15.72C360.69,290.64,346,284.2,337.28,279Z" transform="translate(-19.19 -18.62)"/></svg>